<svg width="48" height="48" viewBox="0 0 48 48" fill="none" xmlns="http://www.w3.org/2000/svg">
<path d="M41.9999 12.429C40.6769 13.015 39.2539 13.406 37.7529 13.591C39.2789 12.685 40.4529 11.24 41.0039 9.533C39.5759 10.37 37.9939 10.985 36.3109 11.309C34.9669 9.884 33.0499 9 30.9259 9C26.8459 9 23.5389 12.278 23.5389 16.32C23.5389 16.892 23.6059 17.449 23.7319 17.99C17.5939 17.682 12.1499 14.764 8.50795 10.336C7.86795 11.418 7.50795 12.685 7.50795 14.022C7.50795 16.563 8.80895 18.8 10.7929 20.118C9.58195 20.081 8.44195 19.744 7.44395 19.204C7.44395 19.226 7.44395 19.259 7.44395 19.29C7.44395 22.841 9.99095 25.798 13.3669 26.471C12.7499 26.64 12.0979 26.734 11.4259 26.734C10.9489 26.734 10.4839 26.68 10.0339 26.599C10.9739 29.501 13.7009 31.622 16.9319 31.685C14.4039 33.645 11.2199 34.819 7.75795 34.819C7.15995 34.819 6.57495 34.785 5.99695 34.715C9.26795 36.786 13.1519 38 17.3209 38C30.9059 38 38.3379 26.844 38.3379 17.166C38.3379 16.849 38.3279 16.533 38.3129 16.221C39.7629 15.197 41.0129 13.905 41.9999 12.429Z" fill="#03A9F4"/>
</svg>
